<svg width="24" height="24" viewBox="0 0 24 24" fill="none" xmlns="http://www.w3.org/2000/svg">
<g clip-path="url(#clip0_1884_226160)">
<path d="M20.5 24H3.5C1.57 24 0 22.43 0 20.5V5.5C0 3.57 1.57 2 3.5 2H4.5C4.776 2 5 2.224 5 2.5C5 2.776 4.776 3 4.5 3H3.5C2.121 3 1 4.121 1 5.5V20.5C1 21.879 2.121 23 3.5 23H20.5C21.879 23 23 21.879 23 20.5V5.5C23 4.121 21.879 3 20.5 3H19.5C19.224 3 19 2.776 19 2.5C19 2.224 19.224 2 19.5 2H20.5C22.43 2 24 3.57 24 5.5V20.5C24 22.43 22.43 24 20.5 24Z" fill="black"/>
<path d="M15.5 3H8.5C8.224 3 8 2.776 8 2.5C8 2.224 8.224 2 8.5 2H15.5C15.776 2 16 2.224 16 2.5C16 2.776 15.776 3 15.5 3Z" fill="black"/>
<path d="M23.5 8H0.5C0.224 8 0 7.776 0 7.5C0 7.224 0.224 7 0.5 7H23.5C23.776 7 24 7.224 24 7.5C24 7.776 23.776 8 23.5 8Z" fill="black"/>
<path d="M6.5 5C6.224 5 6 4.776 6 4.5V0.5C6 0.224 6.224 0 6.5 0C6.776 0 7 0.224 7 0.5V4.5C7 4.776 6.776 5 6.5 5Z" fill="black"/>
<path d="M17.5 5C17.224 5 17 4.776 17 4.5V0.5C17 0.224 17.224 0 17.5 0C17.776 0 18 0.224 18 0.5V4.5C18 4.776 17.776 5 17.5 5Z" fill="black"/>
</g>
<defs>
<clipPath id="clip0_1884_226160">
<rect width="24" height="24" fill="white"/>
</clipPath>
</defs>
</svg>
