<svg width="24" height="24" viewBox="0 0 24 24" fill="none" xmlns="http://www.w3.org/2000/svg">
<path d="M20.0002 20.5002C19.8722 20.5002 19.7442 20.4512 19.6462 20.3542L2.64625 3.35423C2.45125 3.15923 2.45125 2.84223 2.64625 2.64723C2.84125 2.45223 3.15825 2.45223 3.35325 2.64723L20.3533 19.6472C20.5483 19.8422 20.5483 20.1592 20.3533 20.3542C20.2563 20.4512 20.1283 20.5002 20.0002 20.5002Z" fill="black"/>
<path d="M3.00025 20.5002C2.87225 20.5002 2.74425 20.4512 2.64625 20.3542C2.45125 20.1592 2.45125 19.8422 2.64625 19.6472L19.6462 2.64723C19.8412 2.45223 20.1583 2.45223 20.3533 2.64723C20.5483 2.84223 20.5483 3.15923 20.3533 3.35423L3.35325 20.3542C3.25625 20.4512 3.12825 20.5002 3.00025 20.5002Z" fill="black"/>
</svg>
