<svg width="24" height="24" viewBox="0 0 24 24" fill="none" xmlns="http://www.w3.org/2000/svg">
<path d="M23.5 6H7.5C7.224 6 7 5.776 7 5.5C7 5.224 7.224 5 7.5 5H23.5C23.776 5 24 5.224 24 5.5C24 5.776 23.776 6 23.5 6Z" fill="black"/>
<path d="M23.5 13H7.5C7.224 13 7 12.776 7 12.5C7 12.224 7.224 12 7.5 12H23.5C23.776 12 24 12.224 24 12.5C24 12.776 23.776 13 23.5 13Z" fill="black"/>
<path d="M23.5 20H7.5C7.224 20 7 19.776 7 19.5C7 19.224 7.224 19 7.5 19H23.5C23.776 19 24 19.224 24 19.5C24 19.776 23.776 20 23.5 20Z" fill="black"/>
<path d="M2.5 22C1.122 22 0 20.879 0 19.5C0 18.121 1.122 17 2.5 17C3.878 17 5 18.121 5 19.5C5 20.879 3.878 22 2.5 22ZM2.5 18C1.673 18 1 18.673 1 19.5C1 20.327 1.673 21 2.5 21C3.327 21 4 20.327 4 19.5C4 18.673 3.327 18 2.5 18Z" fill="black"/>
<path d="M2.5 15C1.122 15 0 13.879 0 12.5C0 11.121 1.122 10 2.5 10C3.878 10 5 11.121 5 12.5C5 13.879 3.878 15 2.5 15ZM2.5 11C1.673 11 1 11.673 1 12.5C1 13.327 1.673 14 2.5 14C3.327 14 4 13.327 4 12.5C4 11.673 3.327 11 2.5 11Z" fill="black"/>
<path d="M2.5 8C1.122 8 0 6.879 0 5.5C0 4.121 1.122 3 2.5 3C3.878 3 5 4.121 5 5.5C5 6.879 3.878 8 2.5 8ZM2.5 4C1.673 4 1 4.673 1 5.5C1 6.327 1.673 7 2.5 7C3.327 7 4 6.327 4 5.5C4 4.673 3.327 4 2.5 4Z" fill="black"/>
</svg>
