<svg width="159" height="159" viewBox="0 0 159 159" fill="none" xmlns="http://www.w3.org/2000/svg">
<circle cx="79.5" cy="79.5" r="79.5" fill="#7E49FF"/>
<circle cx="79.5" cy="79.5" r="64.5" fill="#7E49FF" stroke="white" stroke-width="4"/>
<path d="M115 103.716H45.1818V74.6023C45.1818 69.375 45.9205 65 47.3977 61.4773C48.875 57.9318 50.9432 55.2727 53.6023 53.5C56.2614 51.7045 59.3409 50.8068 62.8409 50.8068C65.5 50.8068 67.875 51.3636 69.9659 52.4773C72.0341 53.5909 73.75 55.125 75.1136 57.0795C76.4773 59.0341 77.4318 61.2955 77.9773 63.8636H78.6591C78.7955 61.0455 79.5568 58.4432 80.9432 56.0568C82.3295 53.6477 84.2614 51.7159 86.7386 50.2614C89.1932 48.8068 92.1023 48.0795 95.4659 48.0795C99.2159 48.0795 102.568 49.0341 105.523 50.9432C108.455 52.8523 110.773 55.6136 112.477 59.2273C114.159 62.8409 115 67.2273 115 72.3864V103.716ZM101.398 86.8409V76.4091C101.398 72.75 100.705 70.0568 99.3182 68.3295C97.9318 66.5795 96 65.7045 93.5227 65.7045C91.7273 65.7045 90.1818 66.125 88.8864 66.9659C87.5682 67.8068 86.5568 69 85.8523 70.5455C85.125 72.0909 84.7614 73.9432 84.7614 76.1023V86.8409H101.398ZM73.8864 86.8409V77.5C73.8864 75.6591 73.5795 74.0227 72.9659 72.5909C72.3523 71.1591 71.4659 70.0455 70.3068 69.25C69.1477 68.4318 67.75 68.0227 66.1136 68.0227C63.7727 68.0227 61.9318 68.8523 60.5909 70.5114C59.25 72.1705 58.5795 74.4091 58.5795 77.2273V86.8409H73.8864Z" fill="white"/>
</svg>
